# xmcd
#
# Track frame offsets:
#	150
#	15794
#	35713
#	52396
#	68995
#	90800
#	108096
#	125709
#	143476
#	160038
#
# Disc length: 2426 seconds
#
# Revision: 0
# Processed by: cddbd v1.5.1PL2 Copyright (c) Steve Scherf et al.
# Submitted via: dBpowerAMP V4.0
#
DISCID=7909780a
DTITLE=Richard T. BearBlues - Red Hot and Blue
DYEAR=1900
DGENRE=Blues
TTITLE0=Sunshine Hotel (Just walk on in)
TTITLE1=The heart's a lonely hunter
TTITLE2=Lay your head against my pillow
TTITLE3=Suicide
TTITLE4=Pain my heart
TTITLE5=Bring on the night
TTITLE6=If you really want my love
TTITLE7=Speed on
TTITLE8=Susannah
TTITLE9=Blues Power
EXTD=
EXTT0=
EXTT1=
EXTT2=
EXTT3=
EXTT4=
EXTT5=
EXTT6=
EXTT7=
EXTT8=
EXTT9=
PLAYORDER=
